<svg xmlns="http://www.w3.org/2000/svg" viewBox="0 0 128 128"><path d="M53.188 105.836c-1.973-1.852-1.688-5.043.734-8.176 1.793-2.32 9.281-9.918 14.687-14.902l2.188-2.012-3.48-7.46c-3.899-8.364-3.88-8.524 1.265-9.099l2.832-.312 3.168 4.785c1.738 2.633 3.418 4.785 3.719 4.785s3.426-2.504 6.937-5.566c6.098-5.317 6.48-5.55 8.547-5.27 1.246.172 2.352.067 2.61-.246.613-.734 2.375.352 2.375 1.465 0 .461-.88 1.621-1.95 2.578-4.379 3.934-13.715 13.239-13.715 13.664 0 .254 1.88 3.5 4.188 7.22l3.89 6.292a.734.734 0 0 1-.078.879l-.93.715c-.698.77-1.171 1.375-1.265 2.136.168.47-.531.696-1.164.989-1.605.746-2.793-.168-7.7-5.926-2.245-2.64-4.304-4.805-4.577-4.812-.606-.012-7.32 7.324-12.512 13.675-4.578 5.602-8.61 5.711-9.777 4.614Zm-5.446-43.54c-.027-.038-.062-.081-.082-.112-10.222-15.266-17.633-17.95-17.367-18.118 3.887-2.5 11.176-.046 15.684 3.961.05.047.105.106.164.16 1.082.918 1.328 1.25 2.62 2.692.235 0 5.22-8.285 5.25-8.34 10.04-15.828 20.536-22.52 26.63-22.508 2.906 0 3.34 1.016 3.34 1.016-9.872 5.152-18.223 14.336-26.848 31.25a807 807 0 0 1-6.754 13.2c-.438.796-.512-.395-2.633-3.2Zm0 0"/><path d="M14.328 63.113c2.735-.672 4.832-1.625 6.32-2.863 1.48-1.242 2.493-2.719 3.047-4.441q.828-2.58.825-5.73V33.937q0-4.722 1.113-7.774 1.111-3.046 3.793-4.5c1.785-.965 4.246-1.45 7.363-1.45V12.31c-3.95 0-7.277.433-9.969 1.293-2.695.859-4.84 2.18-6.457 3.953-1.62 1.77-2.781 4.015-3.496 6.738-.71 2.719-1.062 5.93-1.062 9.645v12.914c0 4.414-.895 7.558-2.688 9.445-1.785 1.887-4.933 2.824-9.426 2.824v9.688q6.738-.006 9.426 2.824c1.79 1.887 2.684 5.031 2.688 9.445v12.91q-.005 5.566 1.062 9.645c.715 2.719 1.875 4.965 3.496 6.738 1.617 1.774 3.766 3.09 6.457 3.953 2.692.856 6.012 1.29 9.97 1.29v-7.91c-3.118 0-5.58-.493-7.364-1.474q-2.679-1.47-3.793-4.5c-.738-2.015-1.113-4.597-1.113-7.75V77.84c0-2.102-.274-4.008-.825-5.735q-.831-2.579-3.047-4.437-2.219-1.858-6.32-2.867c-.344-.086-.738-.145-1.113-.219v-1.246c.375-.074.77-.14 1.113-.223m99.418 0c-2.734-.672-4.836-1.625-6.32-2.863-1.477-1.242-2.492-2.719-3.047-4.441q-.825-2.58-.824-5.73V33.937c0-3.149-.375-5.739-1.114-7.774-.738-2.031-2.007-3.531-3.793-4.5-1.785-.965-4.246-1.45-7.363-1.45V12.31q5.928 0 9.969 1.293c2.691.859 4.84 2.18 6.46 3.953q2.422 2.654 3.49 6.738 1.07 4.079 1.07 9.645v12.914c-.004 4.414.89 7.558 2.683 9.445 1.785 1.887 4.934 2.824 9.426 2.824v9.68q-6.737 0-9.426 2.824c-1.785 1.887-2.684 5.035-2.684 9.445v12.91q.001 5.566-1.07 9.645-1.064 4.078-3.488 6.738c-1.613 1.774-3.77 3.09-6.461 3.953-2.692.86-6.012 1.293-9.969 1.293v-7.914c3.117 0 5.578-.492 7.363-1.472 1.79-.977 3.051-2.477 3.793-4.496.739-2.02 1.114-4.602 1.114-7.754V77.832c0-2.102.273-4.008.824-5.73q.832-2.585 3.047-4.442 2.22-1.856 6.32-2.863c.344-.09.738-.149 1.113-.223v-1.246c-.375-.074-.77-.14-1.113-.219Zm0 0"/></svg>
