<svg xmlns="http://www.w3.org/2000/svg" viewBox="0 0 128 128">
  <path class="stroke" d="M106.945 35.41c-.386-1.105-1.289-2.129-2.539-2.785L65.29 14.07l-.02-.02c-.43-.206-1.042-.327-1.843-.327-.738 0-1.043 0-1.434.02a9 9 0 0 0-.797.081L22.344 32.36l-.043.02A3.81 3.81 0 0 0 20.152 35l-9.605 41.758a5.03 5.03 0 0 0 .84 3.648l26.93 32.973a6.26 6.26 0 0 0 3.75 1.676H85.3l.164.023c1.187.121 2.312-.39 3.11-1.457l.042-.058 27.094-33.18a5.6 5.6 0 0 0 .965-3.727Zm0 0" fill="none" stroke-width="6.144" stroke="#000"/>
  <path class="fill" d="M97.691 113.254a7.99 7.99 0 0 0-7.988-7.988 7.99 7.99 0 0 0-7.988 7.988 7.99 7.99 0 0 0 7.988 7.988 7.99 7.99 0 0 0 7.988-7.988m-49.562 0a7.99 7.99 0 0 0-7.988-7.988 7.99 7.99 0 0 0-7.989 7.988 7.99 7.99 0 0 0 7.989 7.988 7.99 7.99 0 0 0 7.988-7.988M70.86 14.95a7.984 7.984 0 0 0-7.985-7.985 7.985 7.985 0 0 0-7.988 7.984 7.985 7.985 0 0 0 7.988 7.989 7.985 7.985 0 0 0 7.984-7.989m43.215 18.844a7.99 7.99 0 0 0-7.988-7.988 7.987 7.987 0 1 0 0 15.973 7.987 7.987 0 0 0 7.988-7.985m-85.605 0a7.99 7.99 0 0 0-7.989-7.988 7.987 7.987 0 1 0 0 15.973 7.987 7.987 0 0 0 7.989-7.985m95.641 44.852a7.99 7.99 0 0 0-7.989-7.989 7.987 7.987 0 1 0 0 15.973 7.987 7.987 0 0 0 7.988-7.984m-104.039 0a7.985 7.985 0 0 0-7.988-7.989 7.985 7.985 0 0 0-7.984 7.989 7.984 7.984 0 0 0 7.984 7.984 7.985 7.985 0 0 0 7.988-7.984m20.032-3.485-4.711-8.414-1.414 1.453v6.961h-3.688V56.75h3.688v5.938l5.386-5.938h4.977l-6.453 7.21 6.597 11.2Zm20.457-18.41v3.688h-12.29V56.75Zm-12.29 10.793v-3.688h10.18v3.688Zm0 7.64v-3.687h12.208v3.688ZM64.33 56.75h5.202a9.02 9.02 0 0 1 6.492 2.684 8.7 8.7 0 0 1 1.965 2.949 9.07 9.07 0 0 1 0 7.168 8.3 8.3 0 0 1-1.965 2.906 9.2 9.2 0 0 1-6.492 2.703h-5.183Zm3.687 14.746h1.535a5.53 5.53 0 0 0 0-11.059h-1.535Zm21.01-14.746h1.086l8.703 18.434h-4.074L89.477 63.98l-5.715 11.204h-4.137Zm0 0"/>
  <path class="fill" d="m91.484 74.402 1.004-1.78h-3.851l1.148-8.009-.062-.101L83.62 75.57l-.187.328 3.914-.039-1.024 7.883.02.102 4.73-8.66h-.02Zm0 0" fill="#fff" stroke-width=".205" stroke="#000" stroke-miterlimit="10"/>
  <path class="fill-inverted" d="m91.074 75.184 1.414-2.563h-3.851l1.21-8.293-6.003 10.856h-1.328l6.96-13.047 6.965 13.047Zm0 0"/>
</svg>
