<svg xmlns="http://www.w3.org/2000/svg" viewBox="0 0 128 128">
    <path fill="#fc5d0d" d="M3.332 23.488c0-11.265 9.09-20.394 20.305-20.394h81.21a20.235 20.235 0 0 1 14.356 5.972 20.429 20.429 0 0 1 5.945 14.422v81.575c0 11.265-9.09 20.394-20.3 20.394H23.637c-11.215 0-20.305-9.129-20.305-20.394Zm0 0"/>
    <path fill="#fff" d="m62.785 25.543-1.422.176-1.328.273-1.23.45-1.153.53-1.07.532-.883.707-.89.898-.707.883-.622.98-.625 1.157-.433 1.254-.363 1.234-.258 1.43-.18 1.512V68.8l.18 1.508.258 1.43.363 1.238.433 1.25.543 1.062.61 1.078.8.883.797.8.977.708.973.629 1.152.531 1.246.352 1.328.273 1.407.176 1.523.094 1.5-.094 1.406-.176 1.332-.273 1.246-.352 1.149-.531.972-.63.98-.706.88-.801.719-.887.609-1.074.625-1.062.445-1.25.352-1.332.273-1.336.082-1.508.09-1.606V59.98h-7.976v7.743l-.082 1.336-.27 1.156-.356.898-.269.352-.258.355-.27.274-.355.258-.715.351-.882.274h-1.95l-.883-.274-.714-.351-.352-.258-.258-.274-.27-.355-.273-.352-.351-.898-.258-1.156-.094-1.336V38.539l.094-1.43.258-1.062.351-.98.18-.352.27-.356.351-.27.352-.273.714-.355.883-.176.977-.082.972.082.801.176.797.45.356.179.27.351.257.356.27.351.355.98.27 1.075.082 1.336v5.781h7.976v-6.76l-.172-1.512-.273-1.426-.352-1.238-.445-1.254-.527-1.156-.625-.98-.801-.884-.797-.898-.98-.707-2.11-1.063-1.246-.449-1.328-.273-1.422-.176ZM51.621 88.734v14.329h25.25v-14.33Zm0 0"/>
  </svg>
