<svg xmlns="http://www.w3.org/2000/svg" viewBox="0 0 128 128"><path fill="#2684ff" d="M95.922 2.563a3.868 3.868 0 0 0-3.156 1.867 170.125 170.125 0 0 1-3.711 6.316C79.03 27.27 68.825 25.414 50.64 16.684L25.398 4.804c-2.039-.929-4.261 0-5.195 1.856L8.145 33.953c-.93 1.86 0 4.277 1.855 5.203 5.379 2.414 15.96 7.43 25.234 12.07C69.57 67.57 98.707 66.642 120.97 30.43a326.371 326.371 0 0 0 3.902-6.317c1.113-1.855.555-4.27-1.3-5.383L98.144 3.13a3.965 3.965 0 0 0-2.223-.567Zm-42.317 58.85c-17.714.41-33.355 9.535-46.574 31.035a326.368 326.368 0 0 0-3.902 6.317c-1.11 1.855-.555 4.27 1.3 5.382l25.426 15.602c1.856 1.113 4.266.555 5.38-1.3a182.86 182.86 0 0 1 3.71-6.317c10.024-16.524 20.23-14.668 38.414-5.938l25.243 11.88c2.039.929 4.27 0 5.195-1.856l12.062-27.293c.926-1.86 0-4.27-1.859-5.2-5.379-2.417-15.953-7.433-25.234-12.07-13.946-6.715-27.04-10.52-39.157-10.242Zm0 0"/></svg>
