<svg xmlns="http://www.w3.org/2000/svg" width="128" height="128" viewBox="0 0 128 128"><path fill="#8d8e92" d="M73.152 38.363a1.87 1.87 0 0 0-1.757 1.547s-6.016 38.848-6.637 38.848-6.836-29.192-6.836-29.192a1.85 1.85 0 0 0-1.645-1.425 1.85 1.85 0 0 0-1.87 1.113L48.19 63.578h-3.543c-.734-1.531-2.285-2.598-4.097-2.598a4.55 4.55 0 0 0-4.485 4.551c0 2.489 2 4.516 4.485 4.555a4.56 4.56 0 0 0 4.199-2.79h4.664c.738 0 1.41-.437 1.703-1.12 0 0 4.024-10.285 4.465-10.285.438 0 7.648 32.672 7.648 32.672.2.843.95 1.437 1.813 1.437.941-.027 1.684-.676 1.836-1.547 0 0 6.195-39.402 6.73-39.402s6.754 25.883 6.754 25.883a1.86 1.86 0 0 0 1.703 1.386 1.87 1.87 0 0 0 1.84-1.207l4.918-13.14 3.278 5.035c.28-2.344.218-4.719-.165-7.117l-1.968-3.075a1.85 1.85 0 0 0-1.762-.859 1.87 1.87 0 0 0-1.555 1.2L82.48 68.308l-7.449-28.555a1.864 1.864 0 0 0-1.804-1.39z"/><path fill="#c4222f" d="M64 106.156c-23.113 0-41.852-18.847-41.852-42.094C22.148 40.817 40.887 21.97 64 21.97s41.852 18.847 41.852 42.094c0 23.246-18.739 42.093-41.852 42.093m0-103.89c-35.348 0-64 27.699-64 61.867S28.652 126 64 126s64-27.7 64-61.867S99.348 2.266 64 2.266"/></svg>
