<svg xmlns="http://www.w3.org/2000/svg" viewBox="0 0 128 128"><path d="M18.566 9.469C13.196 12.66 2.61 24.82 2.512 28.008v5.277c0 6.692 6.254 12.574 11.93 12.574 6.82 0 12.5-5.652 12.5-12.359 0 6.707 5.488 12.36 12.308 12.36 6.82 0 12.129-5.653 12.129-12.36 0 6.707 5.832 12.36 12.652 12.36h.125c6.82 0 12.653-5.653 12.653-12.36 0 6.707 5.312 12.36 12.129 12.36 6.82 0 12.304-5.653 12.304-12.36 0 6.707 5.684 12.36 12.5 12.36 5.68 0 11.934-5.88 11.934-12.575v-5.277c-.098-3.188-10.684-15.348-16.055-18.54-16.7-.585-28.273-.687-45.527-.683-17.254 0-40.774.27-45.528.684Zm32.727 33.238a14.164 14.164 0 0 1-2.398 3.09 14.268 14.268 0 0 1-9.993 4.078 14.3 14.3 0 0 1-10.015-4.078c-.93-.914-1.64-1.89-2.29-3.031l-.003.004c-.649 1.14-1.551 2.117-2.485 3.03a14.326 14.326 0 0 1-10.015 4.075c-.469 0-.957-.129-1.352-.266-.547 5.711-.777 11.164-.86 15.141v.023c-.01 2.02-.023 3.684-.03 5.989.105 11.976-1.188 38.82 5.28 45.414 10.02 2.336 28.462 3.402 46.962 3.41 18.5-.008 36.941-1.074 46.96-3.41 6.47-6.594 5.176-33.438 5.282-45.414l-.031-5.989v-.023c-.082-3.977-.313-9.434-.86-15.14-.394.136-.882.265-1.351.265a14.32 14.32 0 0 1-10.016-4.074c-.933-.918-1.836-1.89-2.484-3.031l-.004-.004c-.649 1.136-1.36 2.117-2.29 3.027a14.29 14.29 0 0 1-10.015 4.078 14.265 14.265 0 0 1-9.992-4.074 14.164 14.164 0 0 1-2.398-3.09 14.154 14.154 0 0 1-2.375 3.09 14.323 14.323 0 0 1-10.016 4.078c-.137 0-.274-.008-.406-.012h-.004c-.137.004-.27.012-.41.012a14.297 14.297 0 0 1-10.012-4.078 14.051 14.051 0 0 1-2.379-3.09ZM41.008 56.004v.008h.008c4.074.008 7.691 0 12.172 4.89 3.527-.37 7.214-.554 10.906-.55 3.691-.004 7.375.18 10.906.55 4.48-4.894 8.098-4.882 12.172-4.89h.008l-.004-.008c1.926 0 9.62 0 14.984 15.062l5.762 20.664c4.27 15.372-1.367 15.747-8.399 15.762-10.421-.387-16.195-7.957-16.195-15.527-5.77.945-12.504 1.418-19.234 1.418h-.004c-6.73 0-13.461-.473-19.235-1.418 0 7.57-5.77 15.14-16.195 15.527-7.027-.015-12.664-.39-8.394-15.762l5.761-20.664c5.364-15.062 13.059-15.062 14.985-15.062Zm23.086 11.84c-.012.011-10.977 10.082-12.95 13.664l7.184-.29v6.262c0 .293 2.879.172 5.766.04 2.883.132 5.765.253 5.765-.04v-6.26l7.18.289c-1.973-3.582-12.945-13.664-12.945-13.664Zm0 0"/></svg>