<svg xmlns="http://www.w3.org/2000/svg" viewBox="0 0 128 128"><path fill="#2684ff" d="M61.191 2.559c0 14.746 11.934 26.687 26.684 26.687h10.879v10.527c0 14.747 11.941 26.688 26.687 26.688V7.652a5.1 5.1 0 0 0-5.093-5.093ZM31.875 32.05c0 14.742 11.938 26.683 26.68 26.683H69.44v10.532c0 14.746 11.938 26.683 26.684 26.683V37.141a5.098 5.098 0 0 0-5.09-5.09ZM2.559 61.539c0 14.75 11.937 26.684 26.687 26.684h10.879v10.535c0 14.746 11.941 26.68 26.684 26.68V66.636a5.094 5.094 0 0 0-5.09-5.094H2.559Zm0 0"/></svg>
