<svg xmlns="http://www.w3.org/2000/svg" viewBox="0 0 128 128"><path fill="#494949" d="M64 76.309c-6.797 0-12.309-5.512-12.309-12.309S57.203 51.691 64 51.691 76.309 57.203 76.309 64 70.797 76.309 64 76.309m0-3.692A8.62 8.62 0 0 0 72.617 64 8.62 8.62 0 0 0 64 55.383 8.62 8.62 0 0 0 55.383 64 8.62 8.62 0 0 0 64 72.617M45.293 18.461v8.863c.492 2.707 5.168 13.54 8.613 19.938-4.43-3.2-14.277-10.586-16.984-14.278a22.7 22.7 0 0 1-4.184-7.136L15.262 35.69v21.172c2.215 1.23 5.66 3.692 7.629 4.43 2.71.984 14.523 2.215 21.664 2.46-5.172 2.216-16.246 7.138-20.926 7.63-3.938.742-6.645.246-8.367 0v20.926l16.984 9.597c2.215-.984 5.906-2.953 7.629-4.183 2.219-1.723 9.11-11.325 12.8-17.477-.491 5.414-1.968 17.477-3.69 21.906-1.477 3.696-3.2 5.664-4.184 7.141l19.445 11.078 17.969-10.34c.246-2.215.492-6.894 0-9.355-.246-2.707-5.168-13.54-8.367-19.938 4.43 3.446 14.027 10.832 16.984 14.524 2.707 3.199 3.691 5.906 4.184 7.383l18.214-10.336v-20.68c-1.968-1.23-5.906-3.692-8.367-4.676-2.465-.984-14.277-2.215-21.418-2.46 5.172-2.462 16.246-7.138 20.926-7.63 4.43-.738 7.137-.246 8.86.246V35.691L96 25.848l-7.629 4.675c-2.219 1.723-9.11 11.325-13.047 17.23.739-5.413 2.215-17.476 3.938-21.905 1.476-3.696 3.199-5.91 4.43-7.141L64.245 7.629Zm18.953-16 53.414 30.77V94.77l-53.414 30.77-53.414-30.77V33.23Zm0 0"/></svg>