<svg xmlns="http://www.w3.org/2000/svg" viewBox="0 0 128 128"><path d="M84.707 43.293C81.922 22.379 74.852 4.922 64 4.922S46.086 22.379 43.293 43.293C22.379 46.078 4.922 53.148 4.922 64s17.457 17.914 38.371 20.707c2.785 20.906 9.855 38.371 20.707 38.371s17.914-17.457 20.707-38.371c20.914-2.785 38.371-9.855 38.371-20.707s-17.465-17.922-38.371-20.707m-42.094 35.32c-20.031-2.89-31.703-9.511-31.703-14.617 0-5.105 11.676-11.723 31.703-14.617A161 161 0 0 0 41.941 64c0 4.875.23 9.797.672 14.613M64 10.906c5.102 0 11.723 11.676 14.617 31.703a161 161 0 0 0-29.234 0C52.273 22.582 58.895 10.906 64 10.906m21.387 67.707c-.985.145-5.032.617-6.055.719q-.328 3.031-.715 6.055c-2.894 20.027-9.515 31.703-14.62 31.703-5.102 0-11.72-11.676-14.614-31.703-.149-.985-.621-5.032-.723-6.055a158 158 0 0 1 0-30.672 156.5 156.5 0 0 1 36.727.719c20.027 2.89 31.715 9.516 31.715 14.617-.008 5.098-11.688 11.727-31.715 14.621Zm0 0"/></svg>
