<svg viewBox="-2 -2 176 48" xmlns="http://www.w3.org/2000/svg"><path d="M55.661 13.064v2.1h6.111v16.17h2.302v-16.17h6.11v-2.1zM70.66 24.746c0 3.99 2.646 6.746 6.693 6.746 3.015 0 5.45-1.863 5.979-4.54h-2.196c-.45 1.732-2.144 2.623-3.942 2.623-2.513 0-4.18-1.732-4.258-4.225v-.184H83.41c.027-.315.053-.63.053-.919-.105-3.964-2.699-6.352-6.401-6.352-3.81 0-6.401 2.73-6.401 6.851m2.408-1.365c.211-2.179 2.037-3.596 4.02-3.596 2.142 0 3.836 1.286 4.048 3.596zm29.315-5.486c-2.407 0-3.862 1.102-4.682 2.546-.767-1.706-2.38-2.546-4.259-2.546-2.09 0-3.227 1.023-3.94 1.995l-.185-1.838h-1.985v13.282h2.17v-6.956c0-2.677 1.348-4.515 3.57-4.515 2.063 0 3.254 1.365 3.254 3.99v7.481h2.169v-7.06c0-2.73 1.375-4.41 3.624-4.41 2.036 0 3.2 1.364 3.2 3.99v7.48h2.169v-7.612c0-4.226-2.301-5.828-5.105-5.828m15.872.001c-2.275 0-3.73 1.076-4.629 2.31l-.184-2.153h-1.985v18.532h2.169v-7.297c.82 1.286 2.354 2.205 4.629 2.205 3.623 0 6.481-2.757 6.481-6.746 0-4.358-2.858-6.851-6.481-6.851m-.212 11.68c-2.645 0-4.444-2.047-4.444-4.881 0-2.862 1.799-4.883 4.444-4.883 2.565 0 4.471 2.021 4.471 4.935 0 2.808-1.906 4.83-4.471 4.83m16.46 1.916c3.941 0 6.692-2.783 6.692-6.746 0-4.069-2.751-6.851-6.692-6.851s-6.693 2.782-6.693 6.851c0 3.963 2.751 6.746 6.693 6.746m0-1.917c-2.672 0-4.471-2.073-4.471-4.829 0-2.861 1.799-4.935 4.471-4.935 2.671 0 4.47 2.074 4.47 4.935 0 2.756-1.799 4.83-4.47 4.83m16.494-11.524c-2.407 0-3.652.997-4.287 2.021l-.184-2.021h-1.985v13.282h2.169v-6.72c0-2.126.98-4.462 3.811-4.462h1.084v-2.1zm15.094 11.208c-.555 0-.899-.21-.899-.866v-5.67c0-3.123-1.877-4.83-5.316-4.83-3.254 0-5.396 1.55-5.714 4.174h2.169c.265-1.365 1.535-2.257 3.439-2.257 2.116 0 3.253 1.05 3.253 2.782v.92h-3.861c-3.545 0-5.423 1.39-5.423 4.067 0 2.442 2.01 3.912 4.973 3.912 2.328 0 3.57-1.024 4.417-2.232.026 1.313.635 2.074 2.433 2.074h1.191V29.26zm-3.068-3.386c0 2.231-1.454 3.78-4.152 3.78-1.799 0-2.936-.892-2.936-2.205 0-1.523 1.084-2.126 3.015-2.126h4.073zm6.807-12.81v18.27H172v-18.27zm-140.57 1.397C28.236 6.856 25.652.5 21.665.5c-3.977 0-6.572 6.356-7.597 13.961C6.405 15.478 0 18.043 0 22c0 3.946 6.405 6.522 14.068 7.539 1.025 7.605 3.609 13.961 7.597 13.961 3.976 0 6.571-6.356 7.596-13.961 7.663-1.017 14.068-3.582 14.068-7.539s-6.405-6.533-14.068-7.539M13.823 27.306c-7.34-1.05-11.629-3.46-11.629-5.317s4.278-4.267 11.629-5.317a56 56 0 0 0-.245 5.317c0 1.769.078 3.57.245 5.317m7.842-24.64c1.87 0 4.299 4.245 5.357 11.54a58 58 0 0 0-5.357-.242c-1.783 0-3.587.088-5.358.243 1.058-7.285 3.486-11.54 5.358-11.54m7.841 24.64c-.356.055-1.849.221-2.216.265a66 66 0 0 1-.268 2.2c-1.058 7.285-3.486 11.54-5.357 11.54-1.872 0-4.3-4.244-5.358-11.54-.056-.354-.223-1.835-.267-2.2a58 58 0 0 1-.279-5.582c0-2 .1-3.847.279-5.582a59 59 0 0 1 5.625-.277 56 56 0 0 1 7.841.542c7.34 1.05 11.629 3.46 11.629 5.317s-4.289 4.267-11.629 5.317"/></svg>