<svg xmlns="http://www.w3.org/2000/svg" viewBox="0 0 128 128">
  <path d="M127.727 63.984c0 25.996-15.551 48.356-37.848 58.286l-21.172-21.336a4.76 4.76 0 0 1-1.379-3.348v-9.117a2.377 2.377 0 0 1 2.379-2.375h20.441l5.594 2.437a2.14 2.14 0 0 0 2.723-.933l12.133-22.11a4.7 4.7 0 0 0 .586-2.285V58a2.18 2.18 0 0 0-.672-1.574l-24.52-24.461a1.56 1.56 0 0 0-.734-.406l-23.871-5.672a4.8 4.8 0 0 1-2.02-1.035l-1.508-1.309-7.656-6.637a.72.72 0 0 0-.933.02c-2.958 2.68-4.56 4.883-5.333 7.804-1.289 4.567-.183 8.614 1.637 11.067q.17.235.344.441l9.129 9.149c.45.437.691 1.039.691 1.668l.004 10.55a.769.769 0 0 1-1.312.543L39.547 43.266a1.026 1.026 0 0 0-1.453 0l-6.125 6.105a1.03 1.03 0 0 0-.004 1.461L53.117 71.98a13 13 0 0 1 3.805 9.184v21.016a5.3 5.3 0 0 0 1.555 3.754l20.128 20.136a63.6 63.6 0 0 1-11.773 1.618l-15.89-15.891a11.8 11.8 0 0 1-3.458-8.352V81.7c0-1.25-.5-2.453-1.382-3.336l-20.84-20.84a1.03 1.03 0 0 0-1.457 0l-6.168 6.153a1.02 1.02 0 0 0-.301.73c0 .274.105.535.3.727l17.942 17.941c.442.45.692 1.047.692 1.672v10.52a.769.769 0 0 1-1.313.543L11.219 72.098a.59.59 0 0 0-1.008.414l-.027 12.597c-.004.79.308 1.547.867 2.11l38.988 38.988C20.793 119.672-.863 93.02.32 61.523 1.531 29.266 27.27 2.61 59.477.383c37.238-2.57 68.25 26.89 68.25 63.601"/>
</svg>
