<svg xmlns="http://www.w3.org/2000/svg" viewBox="0 0 128 128"><path d="M124.422 63.984c0 24.649-14.742 45.848-35.883 55.266L68.465 99.02a4.5 4.5 0 0 1-1.309-3.176v-8.645a2.254 2.254 0 0 1 2.254-2.25h19.383l5.305 2.309a2.033 2.033 0 0 0 2.582-.883l11.504-20.965a4.5 4.5 0 0 0 .554-2.164v-4.934a2.06 2.06 0 0 0-.636-1.492l-23.25-23.195a1.5 1.5 0 0 0-.696-.383l-22.633-5.379a4.6 4.6 0 0 1-1.918-.98l-1.43-1.242-7.257-6.293a.68.68 0 0 0-.883.02c-2.805 2.538-4.324 4.628-5.058 7.398-1.223 4.332-.172 8.168 1.554 10.492q.16.223.324.418l8.657 8.676c.425.414.656.984.656 1.582l.004 10.004a.74.74 0 0 1-.453.671.73.73 0 0 1-.793-.156L40.816 44.34a.98.98 0 0 0-1.379 0l-5.808 5.789a.983.983 0 0 0-.004 1.387l20.055 20.05a12.32 12.32 0 0 1 3.61 8.707V100.2c0 1.336.53 2.617 1.472 3.559l19.086 19.094a60.4 60.4 0 0 1-11.164 1.535L51.617 109.32a11.2 11.2 0 0 1-3.277-7.922V80.781a4.48 4.48 0 0 0-1.309-3.16L27.27 57.86a.97.97 0 0 0-1.38 0l-5.85 5.836a.97.97 0 0 0-.286.692c0 .258.101.508.285.687l17.012 17.012c.422.426.656.992.656 1.586v9.973a.728.728 0 0 1-1.242.515L13.957 71.68a.56.56 0 0 0-.61-.125.56.56 0 0 0-.347.515l-.027 11.946a2.82 2.82 0 0 0 .824 2l36.965 36.964C23.035 116.785 2.5 91.516 3.622 61.652 4.77 31.066 29.175 5.793 59.71 3.684c35.309-2.438 64.71 25.492 64.71 60.3"/></svg>