<svg xmlns="http://www.w3.org/2000/svg" viewBox="0 0 128 128">
  <path fill="#512bd4" d="M0 0h128v128H0z"/>
  <path fill="#fff" d="M22.813 81.777c-.903 0-1.672-.3-2.31-.906-.632-.617-.948-1.351-.948-2.203 0-.863.316-1.606.949-2.227.637-.617 1.406-.925 2.308-.925.922 0 1.7.308 2.333.925.648.621.972 1.364.972 2.227 0 .852-.324 1.586-.972 2.203-.633.606-1.41.906-2.332.906Zm36.183-.511H53.11l-15.496-24.45a10.859 10.859 0 0 1-.972-1.925h-.137c.121.71.18 2.234.18 4.57v21.805H31.48V48h6.266l14.98 23.871c.633.992 1.044 1.672 1.223 2.043h.09c-.152-.883-.227-2.375-.227-4.477V48h5.184Zm25.34 0H66.12V48h17.492v4.688H71.508v9.417h11.156v4.665H71.508v9.835h12.828Zm25.887-28.579h-9.325v28.579h-5.382V52.687h-9.301V48h24.008Zm0 0"/>
</svg>
