<svg xmlns="http://www.w3.org/2000/svg" viewBox="0 0 128 128">
    <path fill="#fff"
        d="M64 124.746c33.55 0 60.746-27.195 60.746-60.746 0-33.55-27.195-60.746-60.746-60.746C30.45 3.254 3.254 30.449 3.254 64c0 33.55 27.195 60.746 60.746 60.746Zm0 0" />
    <path fill="#4000bf"
        d="M64 0C28.652 0 0 28.652 0 64s28.652 64 64 64 64-28.652 64-64S99.348 0 64 0Zm0 6.508c31.75 0 57.492 25.742 57.492 57.492 0 31.75-25.742 57.492-57.492 57.492C32.25 121.492 6.508 95.75 6.508 64 6.508 32.25 32.25 6.508 64 6.508Zm0 0" />
    <path fill="#4000bf"
        d="M64.723 18.441c25.164 0 45.558 20.399 45.558 45.559 0 25.16-20.394 45.559-45.558 45.559-25.16 0-45.559-20.399-45.559-45.559a45.456 45.456 0 0 1 3.426-17.367c3.226 4.39 8.426 7.242 14.293 7.242 9.781 0 17.715-7.934 17.715-17.719 0-5.863-2.852-11.062-7.243-14.289a45.471 45.471 0 0 1 17.368-3.426Zm0 0" />
</svg>
  