<svg xmlns="http://www.w3.org/2000/svg" viewBox="0 0 150 150">
  <g fill="#0cf">
    <path d="M127.527 35.32 83.961 10.258a17 17 0 0 0-16.934 0L23.461 35.32A16.88 16.88 0 0 0 15 49.938v50.125a16.89 16.89 0 0 0 8.46 14.62l43.567 25.047a17 17 0 0 0 16.934 0l43.566-25.062a16.86 16.86 0 0 0 8.457-14.617V49.926c.016-6.016-3.226-11.594-8.457-14.606m-6.687 56.016a16.88 16.88 0 0 1-8.457 14.617L83.96 122.285a17 17 0 0 1-16.934 0L38.62 105.953a16.86 16.86 0 0 1-8.46-14.617V58.652a16.88 16.88 0 0 1 8.456-14.617L67.027 27.7a17 17 0 0 1 16.934 0l28.406 16.336a16.85 16.85 0 0 1 8.461 14.617v32.684Zm0 0"/>
    <path d="M106.902 81.715v-13.43a19.65 19.65 0 0 0-9.87-17.039l-11.673-6.715a19.82 19.82 0 0 0-19.742 0l-11.676 6.715a19.68 19.68 0 0 0-9.87 17.04v13.429a19.65 19.65 0 0 0 9.87 17.039l11.672 6.715a19.82 19.82 0 0 0 19.742 0l11.676-6.715a19.67 19.67 0 0 0 9.871-17.04"/>
  </g>
</svg>
