<svg xmlns="http://www.w3.org/2000/svg" viewBox="0 0 415 128">
    <path fill="#222" d="M402.18 0H12.82C5.738 0 0 5.746 0 12.832v102.164c0 7.086 5.738 12.832 12.82 12.832h389.36c7.078 0 12.816-5.746 12.816-12.832V12.832C414.996 5.746 409.258 0 402.18 0Zm0 0"/>
    <path fill="#fff" d="M38.176 18.77c-4.434 2.632-13.153 12.664-13.239 15.293v4.359c0 5.52 5.157 10.371 9.836 10.371 5.622 0 10.301-4.664 10.301-10.195 0 5.53 4.524 10.195 10.145 10.195 5.62 0 9.996-4.664 9.996-10.195 0 5.53 4.808 10.195 10.43 10.195h.101c5.621 0 10.426-4.664 10.426-10.195 0 5.53 4.383 10.195 10 10.195 5.621 0 10.14-4.664 10.14-10.195 0 5.53 4.688 10.195 10.305 10.195 4.68 0 9.836-4.852 9.836-10.375v-4.355c-.082-2.63-8.808-12.66-13.234-15.293-13.762-.485-23.305-.57-37.524-.567-14.218 0-33.605.223-37.523.567Zm26.969 27.42a11.596 11.596 0 0 1-1.977 2.551 11.731 11.731 0 0 1-8.238 3.363 11.782 11.782 0 0 1-8.25-3.363 11.116 11.116 0 0 1-1.89-2.5c-.536.942-1.282 1.746-2.052 2.504a11.788 11.788 0 0 1-8.254 3.36 3.523 3.523 0 0 1-1.113-.22 170.975 170.975 0 0 0-.707 12.493v.02l-.027 4.94c.086 9.884-.977 32.028 4.351 37.47 8.262 1.93 23.457 2.808 38.703 2.812h.004c15.246-.004 30.446-.883 38.703-2.812 5.332-5.442 4.27-27.586 4.356-37.47l-.027-4.94v-.02a170.79 170.79 0 0 0-.707-12.492c-.36.133-.735.207-1.114.218a11.775 11.775 0 0 1-8.254-3.363c-.77-.754-1.515-1.558-2.05-2.5a11.007 11.007 0 0 1-1.891 2.496 11.765 11.765 0 0 1-8.25 3.364 11.744 11.744 0 0 1-8.238-3.36 11.715 11.715 0 0 1-1.977-2.55 11.619 11.619 0 0 1-1.96 2.55 11.782 11.782 0 0 1-8.25 3.363 9.42 9.42 0 0 1-.337-.007h-.004c-.11 0-.222.007-.336.007a11.792 11.792 0 0 1-8.254-3.363 11.619 11.619 0 0 1-1.96-2.55Zm-8.477 10.97v.007h.008c3.355.008 6.336 0 10.031 4.035a85.227 85.227 0 0 1 8.988-.45c3-.007 6 .142 8.985.45 3.699-4.035 6.68-4.031 10.035-4.035h.008v-.004c1.586 0 7.925 0 12.347 12.426l4.75 17.05c3.516 12.684-1.129 12.993-6.922 13.005-8.593-.32-13.347-6.567-13.347-12.813-4.758.781-10.309 1.172-15.856 1.172-5.55 0-11.097-.39-15.855-1.172 0 6.246-4.758 12.492-13.348 12.813-5.793-.012-10.437-.32-6.918-13.008L44.32 69.59c4.422-12.426 10.762-12.426 12.348-12.426Zm19.027 9.769c-.007.011-9.047 8.32-10.672 11.273l5.918-.238v5.168c0 .242 2.375.14 4.754.031 2.38.11 4.754.211 4.754-.031v-5.168l5.918.238c-1.625-2.953-10.672-11.27-10.672-11.27Zm85.082 39.718V65.305h13.934v41.343Zm7.055-44.707c-2.352 0-4.172-.59-5.46-1.765-1.231-1.176-1.845-2.746-1.845-4.707 0-1.848.614-3.414 1.844-4.703 1.29-1.29 3.106-1.934 5.457-1.934 2.352 0 4.145.645 5.375 1.934 1.285 1.285 1.93 2.855 1.93 4.703 0 1.96-.645 3.531-1.93 4.707-1.23 1.176-3.023 1.765-5.371 1.765Zm27.676 45.547c-4.031 0-7.082-1.066-9.156-3.195-2.012-2.184-3.02-5.207-3.02-9.074V75.64h-5.539V65.3h5.539V55.219h13.934v10.086h9.07v10.332h-9.07v17.562c0 1.29.254 2.215.757 2.774.559.507 1.399.757 2.516.757 1.512 0 3.164-.671 4.953-2.015l3.192 9.16c-1.621 1.121-3.47 2.016-5.54 2.688-2.07.617-4.617.925-7.636.925Zm34.273 0c-6.383 0-11.418-1.82-15.113-5.46-3.637-3.641-5.453-8.938-5.453-15.883 0-5.043 1.035-9.274 3.105-12.688 2.125-3.531 4.785-5.914 7.977-7.144 3.355-1.29 6.465-1.934 9.32-1.934 3.578 0 6.574.726 8.98 2.183 2.407 1.403 4.173 2.942 5.29 4.622 1.18 1.683 2.02 2.996 2.52 3.949l-9.653 6.219c-.895-1.848-1.871-3.305-2.938-4.372-1.062-1.062-2.347-1.593-3.859-1.593-2.129 0-3.805.84-5.035 2.52-1.23 1.679-1.848 4.23-1.848 7.648 0 3.695.73 6.414 2.184 8.152 1.453 1.734 3.523 2.606 6.21 2.606 2.13 0 3.891-.395 5.29-1.18a19.034 19.034 0 0 0 4.113-3.024l4.453 10.418c-1.344 1.118-3.332 2.239-5.965 3.364-2.629 1.062-5.82 1.593-9.57 1.593Zm20.274-.84V50.512h14.02V67.57c1.175-.84 2.6-1.566 4.28-2.183 1.68-.672 3.696-1.008 6.043-1.008 4.926 0 8.59 1.398 10.997 4.2 2.464 2.804 3.695 6.753 3.695 11.855v26.218h-14.02V82.11c0-2.351-.445-4.058-1.34-5.125-.894-1.117-2.07-1.68-3.527-1.68-1.23 0-2.379.282-3.441.844-1.063.559-1.957 1.149-2.688 1.766v28.742h-14.02Zm49.797.84c-2.239 0-4-.644-5.286-1.933-1.289-1.285-1.93-2.942-1.93-4.957 0-2.016.641-3.7 1.93-5.043 1.286-1.344 3.047-2.016 5.286-2.016 2.128 0 3.836.672 5.12 2.016 1.29 1.343 1.934 3.027 1.934 5.043 0 2.015-.64 3.668-1.93 4.957-1.226 1.289-2.933 1.933-5.12 1.933Zm10.312-.84V65.305h13.934v41.343Zm7.047-44.699c-2.352 0-4.168-.59-5.457-1.765-1.23-1.176-1.844-2.743-1.844-4.704 0-1.851.613-3.417 1.844-4.707 1.289-1.289 3.105-1.933 5.457-1.933 2.351 0 4.14.644 5.371 1.93 1.29 1.292 1.93 2.859 1.93 4.71 0 1.961-.64 3.528-1.93 4.704-1.23 1.175-3.02 1.765-5.371 1.765Zm31.492 45.54c-3.246 0-6.129-.532-8.648-1.598-2.516-1.121-4.672-2.633-6.461-4.54-1.735-1.96-3.078-4.253-4.028-6.886-.898-2.692-1.347-5.606-1.347-8.742 0-4.649 1.008-8.711 3.023-12.184 2.07-3.418 4.645-5.8 7.723-7.144 3.137-1.344 6.379-2.016 9.738-2.016 4.813 0 8.785 1.121 11.918 3.36 3.188 2.241 5.426 5.042 6.719 8.402 1.285 3.363 1.926 6.558 1.926 9.582 0 3.136-.477 6.05-1.426 8.742-.895 2.629-2.238 4.926-4.031 6.887-1.739 1.906-3.891 3.421-6.465 4.543-2.52 1.066-5.403 1.597-8.649 1.597Zm0-10.759c2.352 0 4.059-.98 5.121-2.94 1.063-2.017 1.594-4.704 1.594-8.067 0-3.192-.559-5.743-1.68-7.645-1.117-1.906-2.797-2.86-5.035-2.86-2.183 0-3.832.954-4.953 2.86-1.117 1.902-1.676 4.453-1.676 7.645 0 3.363.531 6.05 1.598 8.066 1.121 1.961 2.8 2.941 5.035 2.941ZM196.137 30.46c-1.086.052-1.996.145-2.739.29-.742.133-1.335.305-1.78.516-.446.214-.766.464-.958.746a1.588 1.588 0 0 0-.289.93c0 .66.191 1.132.578 1.417.395.286.906.426 1.535.426.774 0 1.438-.137 1.996-.41.567-.285 1.122-.71 1.657-1.281Zm-8.614-6.78c1.797-1.645 3.957-2.47 6.485-2.47.914 0 1.73.153 2.449.458.723.293 1.328.71 1.828 1.25a5.212 5.212 0 0 1 1.125 1.902c.266.742.395 1.555.395 2.438v9.875h-1.703c-.356 0-.63-.051-.82-.153-.196-.113-.348-.328-.458-.656l-.336-1.125c-.37.332-.754.649-1.156.946a7.292 7.292 0 0 1-1.172.667 5.87 5.87 0 0 1-1.308.41 7.025 7.025 0 0 1-1.524.157c-.66 0-1.27-.09-1.828-.262a4.15 4.15 0 0 1-1.445-.808 3.576 3.576 0 0 1-.942-1.325c-.222-.527-.336-1.14-.336-1.843 0-.395.067-.786.2-1.172a3.47 3.47 0 0 1 .636-1.13 5.508 5.508 0 0 1 1.172-1.003c.477-.316 1.063-.59 1.75-.824a14.726 14.726 0 0 1 2.438-.563 22.754 22.754 0 0 1 3.164-.273v-.918c0-1.043-.223-1.817-.668-2.313-.446-.508-1.09-.761-1.934-.761-.61 0-1.117.07-1.523.21a6.251 6.251 0 0 0-1.051.489c-.3.172-.582.328-.836.472a1.59 1.59 0 0 1-.82.215 1.11 1.11 0 0 1-.672-.199 1.878 1.878 0 0 1-.442-.488Zm29.547-2.18-6.195 15.633h-3.41L201.27 21.5h3.105c.285 0 .52.066.7.2.195.132.32.296.382.503l3.012 8.348c.312.926.562 1.875.746 2.836.101-.469.215-.938.336-1.403.12-.468.27-.945.441-1.433l3.074-8.348a1 1 0 0 1 .38-.504c.183-.133.402-.199.656-.199Zm9.868 8.96c-1.086.052-2 .145-2.743.29-.738.133-1.332.305-1.78.516-.446.214-.767.464-.958.746a1.617 1.617 0 0 0-.289.93c0 .66.191 1.132.578 1.417.395.286.906.426 1.54.426.769 0 1.433-.137 1.991-.41.567-.285 1.121-.71 1.66-1.281Zm-8.618-6.78c1.797-1.645 3.957-2.47 6.485-2.47.914 0 1.73.153 2.449.458a5 5 0 0 1 1.828 1.25 5.212 5.212 0 0 1 1.125 1.902c.266.742.398 1.555.398 2.438v9.875h-1.707c-.355 0-.628-.051-.82-.153-.191-.113-.344-.328-.457-.656l-.336-1.125a15.11 15.11 0 0 1-1.156.946 7.088 7.088 0 0 1-1.172.667c-.406.184-.844.32-1.309.41a7.025 7.025 0 0 1-1.523.157c-.656 0-1.266-.09-1.824-.262a4.115 4.115 0 0 1-1.446-.808 3.586 3.586 0 0 1-.945-1.325c-.222-.527-.336-1.14-.336-1.843a3.586 3.586 0 0 1 .84-2.301 5.508 5.508 0 0 1 1.172-1.004c.476-.316 1.059-.59 1.75-.824.7-.235 1.512-.422 2.434-.563.925-.152 1.98-.246 3.167-.273v-.918c0-1.043-.226-1.817-.671-2.313-.446-.508-1.09-.761-1.934-.761-.605 0-1.113.07-1.52.21a5.975 5.975 0 0 0-1.05.489c-.305.172-.586.328-.836.472a1.63 1.63 0 0 1-.824.215 1.1 1.1 0 0 1-.668-.199 1.81 1.81 0 0 1-.442-.488Zm19.723-2.18v15.633h-3.777V21.5Zm.516-4.555c0 .325-.067.63-.196.914a2.487 2.487 0 0 1-.535.746 2.489 2.489 0 0 1-.762.52 2.418 2.418 0 0 1-.941.18 2.36 2.36 0 0 1-.93-.18 2.613 2.613 0 0 1-.746-.52 2.526 2.526 0 0 1-.515-.746 2.236 2.236 0 0 1-.184-.914c0-.336.059-.652.184-.945a2.41 2.41 0 0 1 2.191-1.465c.332 0 .648.067.941.2.286.117.543.285.762.503.223.211.402.469.535.762.13.297.2.617.196.945Zm7.12-2.453v22.64h-3.757v-22.64Zm11.997 15.969c-1.086.05-2 .144-2.742.289-.739.133-1.332.305-1.778.516-.449.214-.77.464-.96.746a1.64 1.64 0 0 0-.29.93c0 .66.192 1.132.578 1.417.395.286.91.426 1.54.426.769 0 1.433-.137 1.992-.41.57-.285 1.12-.71 1.66-1.281Zm-8.617-6.781c1.796-1.645 3.96-2.47 6.484-2.47.914 0 1.73.153 2.453.458.719.293 1.328.71 1.824 1.25a5.22 5.22 0 0 1 1.13 1.902c.26.742.394 1.555.394 2.438v9.875h-1.707c-.352 0-.63-.051-.82-.153-.192-.113-.344-.328-.458-.656l-.336-1.125c-.367.332-.753.649-1.156.946a7.088 7.088 0 0 1-1.172.667c-.406.184-.84.32-1.308.41a7.025 7.025 0 0 1-1.524.157 6.18 6.18 0 0 1-1.824-.262 4.115 4.115 0 0 1-1.445-.808 3.586 3.586 0 0 1-.946-1.325c-.222-.527-.335-1.14-.335-1.843a3.586 3.586 0 0 1 .84-2.301 5.508 5.508 0 0 1 1.171-1.004c.477-.316 1.059-.59 1.75-.824.7-.235 1.512-.422 2.434-.563a22.87 22.87 0 0 1 3.168-.273v-.918c0-1.043-.223-1.817-.672-2.313-.445-.508-1.09-.761-1.93-.761-.61 0-1.117.07-1.523.21a5.978 5.978 0 0 0-1.051.489l-.836.472a1.63 1.63 0 0 1-.824.215c-.262 0-.485-.066-.668-.199a1.878 1.878 0 0 1-.442-.488Zm19.586 9.402c.425.516.886.883 1.382 1.094a4.023 4.023 0 0 0 1.598.32c.582 0 1.098-.101 1.555-.305.465-.21.863-.539 1.187-.972.324-.45.574-1.012.746-1.692.172-.691.258-1.515.258-2.468 0-1.72-.285-2.957-.851-3.72-.57-.773-1.387-1.155-2.454-1.155-.718 0-1.347.168-1.886.5-.535.328-1.051.789-1.535 1.386Zm0-9.66a7.67 7.67 0 0 1 2.085-1.57c.77-.399 1.649-.594 2.633-.594.903 0 1.715.176 2.434.531.734.36 1.371.887 1.855 1.54.52.66.914 1.464 1.188 2.405.277.946.414 2.008.414 3.188 0 1.27-.16 2.422-.473 3.457-.316 1.035-.765 1.926-1.355 2.668a6.108 6.108 0 0 1-2.102 1.707c-.82.406-1.734.61-2.738.61-.488 0-.93-.051-1.324-.153a4.654 4.654 0 0 1-2.024-1.023 8.913 8.913 0 0 1-.793-.836l-.168 1.05c-.058.262-.168.453-.32.563-.14.113-.34.168-.594.168h-2.48v-22.64h3.762Zm17.316-8.93v22.64h-3.758v-22.64Zm13.805 13.028c0-.489-.07-.946-.211-1.372a3.149 3.149 0 0 0-.61-1.144 2.799 2.799 0 0 0-1.05-.762c-.415-.191-.903-.289-1.461-.289-1.086 0-1.942.309-2.57.93-.622.62-1.016 1.5-1.188 2.637Zm-7.168 2.27c.062.804.203 1.5.425 2.085.223.582.52 1.063.883 1.45a3.64 3.64 0 0 0 1.297.85 4.858 4.858 0 0 0 1.672.278c.61 0 1.133-.074 1.566-.215a6.7 6.7 0 0 0 1.16-.472c.294-.149.583-.309.868-.473.254-.14.496-.211.73-.211.313 0 .547.113.7.348l1.081 1.37a6.495 6.495 0 0 1-1.402 1.235 8.158 8.158 0 0 1-3.348 1.203 12.22 12.22 0 0 1-1.687.125 8.454 8.454 0 0 1-3.031-.535 6.939 6.939 0 0 1-2.434-1.598c-.691-.714-1.234-1.585-1.629-2.62-.398-1.047-.594-2.258-.594-3.63 0-1.066.172-2.066.516-3 .348-.945.836-1.761 1.477-2.453a7.007 7.007 0 0 1 2.359-1.66c.934-.406 1.984-.61 3.152-.61.985 0 1.891.157 2.723.473.809.297 1.543.77 2.148 1.383.598.602 1.063 1.344 1.399 2.227.344.875.52 1.875.52 3 0 .57-.063.957-.184 1.16-.121.191-.356.29-.7.29Zm27.683-8.532c1.156 0 2.207.187 3.149.562a6.84 6.84 0 0 1 2.437 1.602c.68.687 1.203 1.531 1.567 2.527.367.996.546 2.11.546 3.336 0 1.242-.18 2.36-.546 3.352-.364.996-.887 1.843-1.567 2.547a6.77 6.77 0 0 1-2.437 1.613c-.942.379-1.993.566-3.149.566-1.168 0-2.226-.187-3.183-.566a6.885 6.885 0 0 1-2.45-1.613c-.668-.704-1.191-1.551-1.566-2.547-.367-.992-.55-2.114-.55-3.352 0-1.226.183-2.34.55-3.336.375-.996.898-1.84 1.566-2.527a6.964 6.964 0 0 1 2.45-1.602c.957-.375 2.015-.562 3.183-.562Zm0 13.207c1.297 0 2.258-.434 2.875-1.309.63-.875.946-2.152.946-3.84 0-1.687-.317-2.972-.946-3.855-.617-.883-1.578-1.324-2.875-1.324-1.32 0-2.3.445-2.937 1.34-.63.882-.946 2.164-.946 3.84 0 1.675.317 2.956.946 3.84.636.874 1.617 1.312 2.937 1.312Zm14.086-11.043c.309-.313.64-.602.988-.871a6.125 6.125 0 0 1 1.114-.684 5.758 5.758 0 0 1 1.261-.441 5.927 5.927 0 0 1 1.461-.168c.852 0 1.61.144 2.27.441a4.316 4.316 0 0 1 1.64 1.219c.45.516.782 1.14 1.004 1.875.235.719.352 1.516.352 2.39v9.95h-3.758v-9.95c0-.956-.219-1.69-.656-2.21-.438-.528-1.102-.793-1.992-.793-.637 0-1.262.148-1.828.445a6.547 6.547 0 0 0-1.614 1.203v11.305h-3.757V21.5h2.296c.489 0 .809.23.961.688Zm0 0"/>
</svg>
