<svg xmlns="http://www.w3.org/2000/svg" viewBox="0 0 128 128">
    <path fill="#9a4993" d="M120.352 37.758c0-2.117-.454-4.024-1.391-5.621-.902-1.598-2.254-2.914-4.059-3.957-14.988-8.637-30.015-17.278-45.004-25.918C65.84-.063 61.953.008 57.93 2.367 51.96 5.871 22.05 23.012 13.168 28.18c-3.68 2.117-5.45 5.379-5.45 9.613V89.98c0 2.082.454 3.918 1.321 5.516.902 1.633 2.29 3.02 4.129 4.094 8.918 5.172 38.793 22.277 44.762 25.816 4.023 2.36 7.945 2.465 11.968.106 14.989-8.676 30.016-17.282 45.004-25.922 1.875-1.074 3.227-2.43 4.13-4.094.866-1.598 1.32-3.433 1.32-5.516Zm0 0"/>
    <path fill="#6a1577" d="M64.172 63.68 8.969 95.46c.902 1.634 2.289 3.02 4.129 4.095 8.918 5.172 38.793 22.277 44.761 25.816 4.024 2.36 7.946 2.465 11.97.106 14.991-8.676 30.015-17.282 45.003-25.922 1.875-1.075 3.227-2.426 4.129-4.094Zm0 0"/>
    <path fill="#813084" d="M120.352 37.758c0-2.117-.454-4.024-1.391-5.621L64.17 63.68l54.86 31.78c.867-1.593 1.32-3.433 1.32-5.515Zm0 0"/>
    <path fill="#fff" d="M63.965 26.445c-20.68 0-37.406 16.762-37.406 37.407a37.246 37.246 0 0 0 4.964 18.632C37.977 93.691 50.121 101.258 64 101.258c13.914 0 26.059-7.602 32.512-18.88l-16.274-9.401c-3.191 5.656-9.265 9.507-16.238 9.507a18.55 18.55 0 0 1-16.168-9.402c-1.562-2.742-2.465-5.863-2.465-9.23 0-10.305 8.328-18.633 18.633-18.633 6.871 0 12.875 3.746 16.102 9.297l16.273-9.368c-6.488-11.171-18.566-18.703-32.41-18.703Zm33.137 28.559v3.02h-2.985v3.71h2.985v4.477h-2.985v3.71h2.985v3.02h3.714v-3.02h4.508v3.02h3.715v-3.02h3.02v-3.71h-3.02v-4.477h3.02v-3.71h-3.02v-3.02h-3.715v3.02h-4.508v-3.02Zm3.714 6.73h4.508v4.477h-4.508Zm0 0"/>
</svg>
